<svg width="68" height="14" viewBox="0 0 68 16" fill="none" xmlns="http://www.w3.org/2000/svg">
<g id="Vast_logo">
<g id="Group 1789">
<g id="Logo_Bold">
<path id="Vector" d="M12.992 1.78967L12.1608 1.41053C11.7075 1.18305 11.103 1.41053 10.8763 1.8655L10.6496 2.32046L7.17388 9.90322L3.69812 2.32046L3.47144 1.8655C3.24476 1.41053 2.71584 1.18305 2.18692 1.41053L1.35577 1.78967C0.902406 2.01715 0.675724 2.62377 0.902404 3.07874L1.12908 3.45788L5.88936 13.6946C6.11604 14.2254 6.64496 14.5287 7.17388 14.5287C7.7028 14.5287 8.23172 14.2254 8.4584 13.6946L13.2187 3.45788L13.4454 3.07874C13.672 2.54795 13.4454 1.94132 12.992 1.78967Z" fill="#E8EBEC" style="fill:#E8EBEC;fill:color(display-p3 0.9098 0.9216 0.9255);fill-opacity:1;"/>
<path id="Vector_2" d="M32.411 12.4054L27.5752 2.09289C27.3485 1.5621 26.8196 1.25879 26.2906 1.25879C25.7617 1.25879 25.2328 1.5621 25.0061 2.09289L20.2458 12.3296L20.0192 12.7088C19.7925 13.2395 20.0192 13.8462 20.5481 14.0736L21.3792 14.4528C21.8326 14.6803 22.4371 14.4528 22.6638 13.9978L22.8904 13.5429L26.3662 5.9601L29.842 13.5429L30.0686 13.9978C30.2953 14.4528 30.8242 14.6803 31.3532 14.4528L32.1843 14.0736C32.6377 13.8462 32.8644 13.2395 32.6377 12.7846L32.411 12.4054Z" fill="#E8EBEC" style="fill:#E8EBEC;fill:color(display-p3 0.9098 0.9216 0.9255);fill-opacity:1;"/>
<path id="Vector_3" d="M49.0338 1.25879H48.5805H43.0646H42.9891C41.5534 1.33462 39.3622 2.3962 39.3622 4.89851C39.3622 7.47665 41.4779 8.61406 42.6868 8.84155L45.5581 9.52399C45.6337 9.52399 45.6337 9.52399 45.7092 9.52399C45.8603 9.52399 46.6159 9.67565 46.6159 10.5856C46.6159 11.1164 46.3893 11.4197 45.8603 11.4955H40.3445H39.9667C39.4377 11.4955 38.9844 11.8746 38.9844 12.4054V13.3154C38.9844 13.8462 39.3622 14.3011 39.8911 14.377H40.3445H45.8603C45.9359 14.377 45.9359 14.377 46.0115 14.377C47.3715 14.2253 49.3361 13.1637 49.3361 10.6614C49.3361 8.08327 47.2204 7.02169 46.087 6.7942L43.2157 6.11175C43.2157 6.11175 43.2157 6.11175 43.1402 6.11175C43.0646 6.11175 42.0823 5.88427 42.0823 4.97434C42.0823 4.36772 42.6868 4.21607 43.0646 4.14024H48.5049H48.9583C49.4872 4.14024 49.9406 3.7611 49.9406 3.23031V2.32038C49.9406 1.78958 49.5628 1.33462 49.0338 1.25879Z" fill="#E8EBEC" style="fill:#E8EBEC;fill:color(display-p3 0.9098 0.9216 0.9255);fill-opacity:1;"/>
<path id="Vector_4" d="M67.0178 1.33462H66.5645H57.7995L57.2706 1.25879C56.7417 1.25879 56.2883 1.63793 56.2883 2.16872V3.07865C56.2883 3.60944 56.7417 4.06441 57.2706 4.06441H57.9507H60.7464V12.9362V13.3912C60.7464 13.922 61.1242 14.377 61.6531 14.377H62.5598C63.0887 14.377 63.5421 13.922 63.5421 13.3912V12.9362V4.06441H66.3378H67.0178C67.5468 4.06441 68.0001 3.60944 68.0001 3.07865V2.24455C68.0001 1.71375 67.5468 1.33462 67.0178 1.33462Z" fill="#E8EBEC" style="fill:#E8EBEC;fill:color(display-p3 0.9098 0.9216 0.9255);fill-opacity:1;"/>
</g>
</g>
</g>
</svg>
